<?xml version="1.0" encoding="utf-8"?>
<!-- Generator: Adobe Illustrator 25.0.1, SVG Export Plug-In . SVG Version: 6.00 Build 0)  -->
<svg version="1.1" id="Capa_1" xmlns="http://www.w3.org/2000/svg" xmlns:xlink="http://www.w3.org/1999/xlink" x="0px" y="0px"
	 viewBox="0 0 219.32 218" style="enable-background:new 0 0 219.32 218;" xml:space="preserve">
<style type="text/css">
	.st0{fill:#FFFFFF;}
</style>
<g>
	<path class="st0" d="M134.33,57.53H82.99c-14.63,0-26.52,11.9-26.52,26.52v51.34c0,14.63,11.9,26.52,26.52,26.52h51.33
		c14.63,0,26.53-11.9,26.53-26.52V84.06C160.85,69.43,148.95,57.53,134.33,57.53z M109.19,141.39c-17.46,0-31.66-14.2-31.66-31.66
		c0-17.46,14.2-31.66,31.66-31.66c17.46,0,31.66,14.2,31.66,31.66C140.85,127.19,126.65,141.39,109.19,141.39z M142.7,83.47
		c-4.16,0-7.54-3.38-7.54-7.54c0-4.16,3.38-7.54,7.54-7.54c4.16,0,7.54,3.38,7.54,7.54C150.24,80.1,146.86,83.47,142.7,83.47z"/>
	<path class="st0" d="M109.19,89.44c-11.18,0-20.28,9.1-20.28,20.28c0,11.18,9.1,20.28,20.28,20.28c11.18,0,20.28-9.1,20.28-20.28
		C129.47,98.54,120.37,89.44,109.19,89.44z"/>
	<path class="st0" d="M108.66,0.22C48.1,0.22-1,49.32-1,109.88c0,60.56,49.1,109.66,109.66,109.66
		c60.56,0,109.66-49.1,109.66-109.66C218.32,49.32,169.22,0.22,108.66,0.22z M172.95,135.39c0,21.3-17.33,38.62-38.62,38.62H82.99
		c-21.3,0-38.62-17.32-38.62-38.62V84.06c0-21.3,17.32-38.62,38.62-38.62h51.33c21.3,0,38.62,17.32,38.62,38.62V135.39z"/>
</g>
</svg>
