<?xml version="1.0" encoding="utf-8"?>
<!-- Generator: Adobe Illustrator 25.0.1, SVG Export Plug-In . SVG Version: 6.00 Build 0)  -->
<svg version="1.1" id="Capa_1" xmlns="http://www.w3.org/2000/svg" xmlns:xlink="http://www.w3.org/1999/xlink" x="0px" y="0px"
	 viewBox="0 0 219.32 218" style="enable-background:new 0 0 219.32 218;" xml:space="preserve">
<style type="text/css">
	.st0{fill:#FFFFFF;}
</style>
<g>
	<path class="st0" d="M126.51,108.84l-28.9-15.73c-1.18-0.67-5.24,0.18-5.24,1.54v30.66c0,1.35,4.02,2.2,5.21,1.56l30.19-14.94
		C129,111.29,127.73,109.53,126.51,108.84z"/>
	<path class="st0" d="M108.66,0.22C48.1,0.22-1,49.32-1,109.88c0,60.56,49.1,109.66,109.66,109.66
		c60.56,0,109.66-49.1,109.66-109.66C218.32,49.32,169.22,0.22,108.66,0.22z M167.37,125.27c0,14.54-11.79,26.33-26.33,26.33H73.7
		c-14.54,0-26.33-11.79-26.33-26.33V93.93c0-14.54,11.79-26.33,26.33-26.33h67.34c14.54,0,26.33,11.79,26.33,26.33V125.27z"/>
</g>
</svg>
